<mxfile host="app.diagrams.net" modified="2024-03-12T11:42:14.233Z" agent="Mozilla/5.0 (Windows NT 10.0; Win64; x64) AppleWebKit/537.36 (KHTML, like Gecko) Chrome/122.0.0.0 Safari/537.36" version="24.0.4" etag="SInXt9Ylq6WfSrMHjbCg" type="github">
  <diagram name="第 1 页" id="AJuNTbEqBgMRPC72pGal">
    <mxGraphModel>
      <root>
        <mxCell id="0" />
        <mxCell id="1" parent="0" />
      </root>
    </mxGraphModel>
  </diagram>
</mxfile>
